<svg xmlns="http://www.w3.org/2000/svg" viewBox="0 0 720 420">
<rect width="720" height="420" fill="white"/>
<g font-family="Arial, sans-serif" fill="#111">
<text x="72" y="30" font-size="20" font-weight="600">Learning the proposal bias does not help overall</text>
<text x="72" y="49" font-size="11" fill="#555">mean reach across deep, reuse and context problems</text>
<line x1="72" y1="340" x2="690" y2="340" stroke="#777"/><line x1="72" y1="70" x2="72" y2="340" stroke="#777"/>
<g stroke="#eee"><line x1="72" y1="286" x2="690" y2="286"/><line x1="72" y1="232" x2="690" y2="232"/><line x1="72" y1="178" x2="690" y2="178"/><line x1="72" y1="124" x2="690" y2="124"/><line x1="72" y1="70" x2="690" y2="70"/></g>
<g font-size="11" fill="#555"><text x="48" y="344">0%</text><text x="42" y="290">5%</text><text x="36" y="236">10%</text><text x="36" y="182">15%</text><text x="36" y="128">20%</text><text x="36" y="74">25%</text>
<text x="92" y="360">50</text><text x="221" y="360">100</text><text x="350" y="360">200</text><text x="479" y="360">350</text><text x="608" y="360">500</text><text x="326" y="390">proposal budget</text></g>
<polyline points="102,340 231,290 360,239 489,167 618,110" fill="none" stroke="#1f5f99" stroke-width="2.7"/>
<polyline points="102,340 231,290 360,232 489,174 618,160" fill="none" stroke="#333" stroke-width="2.7"/>
<circle cx="618" cy="110" r="4" fill="#1f5f99"/><circle cx="618" cy="160" r="4" fill="#333"/>
<line x1="505" y1="86" x2="530" y2="86" stroke="#1f5f99" stroke-width="2.7"/><text x="538" y="90" font-size="11">REIFY</text>
<line x1="505" y1="106" x2="530" y2="106" stroke="#333" stroke-width="2.7"/><text x="538" y="110" font-size="11">PROCESS</text>
<text x="458" y="160" font-size="11" fill="#555">500 proposals: 21.3% vs 16.7%</text>
</g></svg>
